<svg width="16" height="11" viewBox="0 0 16 11" fill="none" xmlns="http://www.w3.org/2000/svg">
<path fill-rule="evenodd" clip-rule="evenodd" d="M1.33333 6.95659L11.4533 6.95659L9.73333 8.66325C9.21333 9.18325 9.21333 10.0099 9.73333 10.5299C10.2533 11.0499 11.0933 11.0499 11.6133 10.5299L15.6133 6.56992C15.7333 6.44992 15.8133 6.31659 15.88 6.16992C15.8933 6.12992 15.9067 6.08992 15.9333 6.03659C15.96 5.94325 15.9867 5.83659 15.9867 5.71659C16 5.67659 16 5.63659 16 5.58325C16 5.44992 15.9733 5.30326 15.92 5.16992C15.92 5.15659 15.92 5.14325 15.9067 5.12992C15.84 4.98325 15.7467 4.84992 15.64 4.74325C15.6267 4.72992 15.6267 4.71659 15.6133 4.70326L11.6133 0.743254C11.3467 0.489921 11.0133 0.356588 10.6667 0.356588C10.32 0.356588 9.98667 0.489921 9.72 0.743254C9.2 1.26325 9.2 2.08992 9.72 2.60992L11.4533 4.31659L1.33333 4.31659C0.6 4.31659 5.25994e-07 4.90325 4.61884e-07 5.63659C3.97774e-07 6.36992 0.6 6.95659 1.33333 6.95659Z" fill="white"/>
</svg>
