<svg width="16" height="11" viewBox="0 0 16 11" fill="none" xmlns="http://www.w3.org/2000/svg">
<path fill-rule="evenodd" clip-rule="evenodd" d="M1.33333 6.60002L11.4533 6.60002L9.73333 8.30669C9.21333 8.82669 9.21333 9.65335 9.73333 10.1734C10.2533 10.6934 11.0933 10.6934 11.6133 10.1734L15.6133 6.21335C15.7333 6.09335 15.8133 5.96002 15.88 5.81335C15.8933 5.77335 15.9067 5.73335 15.9333 5.68002C15.96 5.58669 15.9867 5.48002 15.9867 5.36002C16 5.32002 16 5.28002 16 5.22669C16 5.09335 15.9733 4.94669 15.92 4.81335C15.92 4.80002 15.92 4.78669 15.9067 4.77335C15.84 4.62669 15.7467 4.49335 15.64 4.38669C15.6267 4.37335 15.6267 4.36002 15.6133 4.34669L11.6133 0.386688C11.3467 0.133355 11.0133 2.14986e-05 10.6667 2.14683e-05C10.32 2.14379e-05 9.98667 0.133355 9.72 0.386688C9.2 0.906687 9.2 1.73335 9.72 2.25335L11.4533 3.96002L1.33333 3.96002C0.600002 3.96002 1.47967e-06 4.54669 1.41556e-06 5.28002C1.35145e-06 6.01335 0.600002 6.60002 1.33333 6.60002Z" fill="#FF0867"/>
</svg>
