<svg width="45" height="45" viewBox="0 0 45 45" fill="none" xmlns="http://www.w3.org/2000/svg">
<path d="M41.9855 33.75C39.9643 37.2509 37.0371 40.1426 33.5119 42.1211C29.9866 44.0996 25.9934 45.0918 21.9521 44.9933C17.9108 44.8949 13.9707 43.7095 10.5459 41.5618C7.12116 39.414 4.33829 36.3832 2.48986 32.7881C0.641439 29.1929 -0.204256 25.1662 0.0416851 21.1311C0.287626 17.0961 1.61612 13.2019 3.8875 9.85783C6.15888 6.51378 9.28924 3.84344 12.9495 2.12753C16.6098 0.411626 20.6647 -0.286458 24.6881 0.106669L24.5101 1.92829C20.814 1.56714 17.0889 2.20844 13.7264 3.78476C10.3639 5.36108 7.48817 7.81421 5.40156 10.8862C3.31495 13.9583 2.09452 17.5357 1.86859 21.2425C1.64265 24.9493 2.41955 28.6485 4.11761 31.9512C5.81568 35.2539 8.37217 38.0381 11.5183 40.0111C14.6645 41.9842 18.2841 43.0732 21.9967 43.1636C25.7093 43.254 29.3776 42.3425 32.6161 40.525C35.8546 38.7075 38.5436 36.051 40.4004 32.8349L41.9855 33.75Z" fill="#FC438A"/>
<path d="M22.5 0C26.5425 -1.81187e-07 30.5104 1.08911 33.9864 3.15284C37.4625 5.21657 40.3183 8.17868 42.2537 11.7278C44.1891 15.2769 45.1326 19.2818 44.985 23.3216C44.8374 27.3614 43.6041 31.2869 41.4148 34.6852C39.2255 38.0836 36.1611 40.8294 32.5437 42.6339C28.9263 44.4384 24.8896 45.235 20.8578 44.94C16.8261 44.6449 12.9483 43.2691 9.6322 40.9572C6.31606 38.6453 3.68403 35.4826 2.01281 31.8017L3.67938 31.0451C5.21464 34.4265 7.63257 37.3319 10.679 39.4558C13.7253 41.5796 17.2877 42.8435 20.9914 43.1146C24.6952 43.3856 28.4035 42.6538 31.7267 40.9961C35.0498 39.3383 37.865 36.8159 39.8761 33.694C41.8873 30.5721 43.0203 26.966 43.1559 23.2548C43.2915 19.5436 42.4248 15.8644 40.6468 12.604C38.8688 9.34367 36.2453 6.62251 33.052 4.72666C29.8588 2.83081 26.2137 1.83029 22.5 1.83029V0Z" fill="#FC438A"/>
<path fill-rule="evenodd" clip-rule="evenodd" d="M30.8278 14.8488C30.3328 14.4775 29.6466 14.5788 29.2753 15.0738L20.0503 27.4375L15.4041 22.7575C14.9653 22.3188 14.2678 22.3188 13.8291 22.7575C13.3904 23.1963 13.3904 23.905 13.8291 24.3325L19.3866 29.9125C19.6003 30.1263 19.8816 30.2388 20.1741 30.2388C20.1966 30.2388 20.2303 30.2388 20.2528 30.2388C20.5791 30.2163 20.8716 30.0588 21.0628 29.8L31.0641 16.4125C31.4241 15.9175 31.3228 15.22 30.8278 14.8488Z" fill="#FC438A"/>
</svg>
