<svg width="375" height="187" viewBox="0 0 375 187" fill="none" xmlns="http://www.w3.org/2000/svg">
<path d="M285.042 42.2887H263.896V135.071H285.042V42.2887Z" fill="#FF1670"/>
<path d="M315.153 42.2887H285.042V135.511H315.153V42.2887Z" fill="white"/>
<path d="M312.931 47.8773H288.241V49.1764H312.931V47.8773Z" fill="#FF717F"/>
<path d="M312.931 52.1482H288.241V53.4472H312.931V52.1482Z" fill="#FF717F"/>
<path d="M312.931 56.4285H288.241V57.7276H312.931V56.4285Z" fill="#FF717F"/>
<path d="M312.931 60.6993H288.241V61.9984H312.931V60.6993Z" fill="#FF717F"/>
<path d="M312.931 64.9703H288.241V66.2694H312.931V64.9703Z" fill="#FF717F"/>
<path d="M312.931 69.2412H288.241V70.5402H312.931V69.2412Z" fill="#FF717F"/>
<path d="M312.931 73.5122H288.241V74.8112H312.931V73.5122Z" fill="#FF717F"/>
<path d="M312.931 77.7643H288.241V79.0634H312.931V77.7643Z" fill="#FF717F"/>
<path d="M312.931 82.0354H288.241V83.3344H312.931V82.0354Z" fill="#FF717F"/>
<path d="M312.941 81.9231H288.251V83.2221H312.941V81.9231Z" fill="#FF717F"/>
<path d="M312.941 86.1941H288.251V87.4931H312.941V86.1941Z" fill="#FF717F"/>
<path d="M282.764 47.9241H266.177V49.2231H282.764V47.9241Z" fill="#FF0867"/>
<path d="M282.764 52.1764H266.176V53.4754H282.764V52.1764Z" fill="#FF0867"/>
<path d="M282.764 56.4379H266.176V57.737H282.764V56.4379Z" fill="#FF0867"/>
<path d="M282.764 60.6903H266.176V61.9893H282.764V60.6903Z" fill="#FF0867"/>
<path d="M282.764 64.9517H266.176V66.2508H282.764V64.9517Z" fill="#FF0867"/>
<path d="M282.764 69.2134H266.176V70.5124H282.764V69.2134Z" fill="#FF0867"/>
<path d="M282.764 73.4655H266.176V74.7645H282.764V73.4655Z" fill="#FF0867"/>
<path d="M282.788 77.671H266.201V78.9701H282.788V77.671Z" fill="#FF0867"/>
<path d="M282.788 81.9233H266.201V83.2223H282.788V81.9233Z" fill="#FF0867"/>
<path d="M282.831 86.1569H266.243V87.456H282.831V86.1569Z" fill="#FF0867"/>
<path d="M282.764 90.1006H266.176V91.3997H282.764V90.1006Z" fill="#FF0867"/>
<path d="M282.764 94.3622H266.176V95.6612H282.764V94.3622Z" fill="#FF0867"/>
<path d="M282.764 98.6238H266.176V99.9229H282.764V98.6238Z" fill="#FF0867"/>
<path d="M282.764 102.876H266.176V104.175H282.764V102.876Z" fill="#FF0867"/>
<path d="M282.764 107.138H266.176V108.437H282.764V107.138Z" fill="#FF0867"/>
<path d="M282.764 111.39H266.176V112.689H282.764V111.39Z" fill="#FF0867"/>
<path d="M282.764 115.651H266.176V116.95H282.764V115.651Z" fill="#FF0867"/>
<path d="M282.788 119.848H266.201V121.147H282.788V119.848Z" fill="#FF0867"/>
<path d="M282.788 124.109H266.201V125.408H282.788V124.109Z" fill="#FF0867"/>
<path d="M282.831 128.333H266.243V129.632H282.831V128.333Z" fill="#FF0867"/>
<path d="M312.931 90.0632H288.241V91.3622H312.931V90.0632Z" fill="#FF717F"/>
<path d="M312.931 94.334H288.241V95.6331H312.931V94.334Z" fill="#FF717F"/>
<path d="M312.931 98.605H288.241V99.9041H312.931V98.605Z" fill="#FF717F"/>
<path d="M312.931 102.876H288.241V104.175H312.931V102.876Z" fill="#FF717F"/>
<path d="M312.931 107.147H288.241V108.446H312.931V107.147Z" fill="#FF717F"/>
<path d="M312.931 111.418H288.241V112.717H312.931V111.418Z" fill="#FF717F"/>
<path d="M312.931 115.689H288.241V116.988H312.931V115.689Z" fill="#FF717F"/>
<path d="M312.941 123.735H288.251V125.034H312.941V123.735Z" fill="#FF1670"/>
<path d="M312.931 119.941H288.241V121.24H312.931V119.941Z" fill="#FF717F"/>
<path d="M312.931 124.221H288.241V125.52H312.931V124.221Z" fill="#FF717F"/>
<path d="M312.941 124.1H288.251V125.399H312.941V124.1Z" fill="#FF717F"/>
<path d="M312.941 128.371H288.251V129.67H312.941V128.371Z" fill="#FF717F"/>
<path d="M310.852 38.8215H282.686V42.2887H310.852V38.8215Z" fill="#FFDEDE"/>
<path d="M282.763 38.8215H267.536V42.2887H282.763V38.8215Z" fill="#464C59"/>
<path d="M310.853 41.6719H282.754V42.2887H310.853V41.6719Z" fill="#FFC5C5"/>
<path d="M213.617 64.8395H183.794V157.622H213.617V64.8395Z" fill="#FF1670"/>
<path d="M256.091 64.8395H213.617V158.062H256.091V64.8395Z" fill="white"/>
<path d="M252.96 72.288H218.147V74.5216H252.96V72.288Z" fill="#FF1670"/>
<path d="M252.96 79.6149H218.147V81.8485H252.96V79.6149Z" fill="#FF1670"/>
<path d="M252.96 86.951H218.147V89.1847H252.96V86.951Z" fill="#FF1670"/>
<path d="M252.96 94.2875H218.147V96.5211H252.96V94.2875Z" fill="#FF1670"/>
<path d="M252.96 101.614H218.147V103.848H252.96V101.614Z" fill="#FF1670"/>
<path d="M252.96 108.951H218.147V111.184H252.96V108.951Z" fill="#FF1670"/>
<path d="M252.96 116.277H218.147V118.511H252.96V116.277Z" fill="#FF1670"/>
<path d="M210.304 72.4188H186.917V74.8393H210.304V72.4188Z" fill="#FF0867"/>
<path d="M210.303 80.3625H186.916V82.783H210.303V80.3625Z" fill="#FF0867"/>
<path d="M210.303 88.3156H186.916V90.736H210.303V88.3156Z" fill="#FF0867"/>
<path d="M210.303 96.2592H186.916V98.6797H210.303V96.2592Z" fill="#FF0867"/>
<path d="M210.303 104.212H186.916V106.633H210.303V104.212Z" fill="#FF0867"/>
<path d="M210.303 112.156H186.916V114.577H210.303V112.156Z" fill="#FF0867"/>
<path d="M210.303 120.109H186.916V122.53H210.303V120.109Z" fill="#FF0867"/>
<path d="M250.039 61.3724H210.313V64.8396H250.039V61.3724Z" fill="white"/>
<path d="M210.399 61.3724H188.927V64.8396H210.399V61.3724Z" fill="#464C59"/>
<path d="M250.029 64.2228H210.399V64.8396H250.029V64.2228Z" fill="#FFC5C5"/>
<path d="M183.804 47.7278H158.233V152.566H183.804V47.7278Z" fill="white"/>
<path d="M158.233 47.7278H141.56V152.417H158.233V47.7278Z" fill="#464C59"/>
<path d="M158.271 153.249H142.527V90.138L158.271 73.4842V153.249Z" fill="#EAA7A7"/>
<path d="M183.804 47.7278H158.233V48.7184H183.804V47.7278Z" fill="#FFDEDE"/>
<path d="M167.082 52.9708H164.985V94.6894H167.082V52.9708Z" fill="#FF1670"/>
<path d="M177.866 52.9708H175.778V94.6894H177.866V52.9708Z" fill="#FF1670"/>
<path d="M150.638 52.8119H149.001V94.8482H150.638V52.8119Z" fill="#FF0867"/>
<path d="M160.972 14.4669L141.56 47.7371H158.233L161.758 14.495C161.489 14.4856 161.231 14.4763 160.972 14.4669Z" fill="#FF1670"/>
<path d="M162.964 14.4669C162.562 14.4856 162.16 14.4856 161.757 14.4856L158.233 47.7278H183.804L162.964 14.4669Z" fill="white"/>
<path d="M158.233 47.7278H141.56V48.7184H158.233V47.7278Z" fill="#DB3737"/>
<path d="M166.833 46.5316L167.073 30.2797L176.937 46.5316H166.833Z" fill="#FFDEDE"/>
<path d="M164.295 14.4483C164.295 14.7754 163.979 15.0464 163.586 15.0464H160.589C160.196 15.0464 159.88 14.7754 159.88 14.4483C159.88 14.1212 160.196 13.8502 160.589 13.8502H163.586C163.979 13.8502 164.295 14.1118 164.295 14.4483Z" fill="#FF1670"/>
<path d="M162.562 14.28C162.562 14.3735 162.351 14.4482 162.092 14.4482C161.834 14.4482 161.623 14.3735 161.623 14.28V0.16822C161.623 0.0747648 161.834 0 162.092 0C162.351 0 162.562 0.0747648 162.562 0.16822V14.28Z" fill="#FF1670"/>
<path d="M164.295 14.4483C164.295 14.7754 163.979 15.0464 163.587 15.0464H162.035C161.642 15.0464 161.326 14.7754 161.326 14.4483C161.326 14.1212 161.642 13.8502 162.035 13.8502H163.587C163.979 13.8502 164.295 14.1118 164.295 14.4483Z" fill="#FFDEDE"/>
<path d="M173.173 46.5316L167.073 30.2797L176.937 46.5316H173.173Z" fill="#FFA9A9"/>
<path d="M91.1835 63.1106H83.6177V69.7646H91.1835V63.1106Z" fill="white"/>
<path d="M85.9358 63.1106H81.6069V69.7646H85.9358V63.1106Z" fill="#464C59"/>
<path d="M127.529 69.7647H64.5886L52.3586 87.3437H142.527L127.529 69.7647Z" fill="#FF1670"/>
<path d="M52.5023 163.828L76.828 164.183V87.3438H52.3586L52.5023 163.828Z" fill="#464C59"/>
<path d="M76.8281 164.015H142.833L142.527 87.3438H76.8281V164.015Z" fill="white"/>
<path d="M66.3983 96.7827H63.6401V104.091H66.3983V96.7827Z" fill="#FF0867"/>
<path d="M66.3976 109.876H63.6394V117.184H66.3976V109.876Z" fill="#FF0867"/>
<path d="M66.3976 122.978H63.6394V130.287H66.3976V122.978Z" fill="#FF0867"/>
<path d="M66.3119 136.006H63.5537V143.314H66.3119V136.006Z" fill="#FF0867"/>
<path d="M66.3119 149.099H63.5537V156.407H66.3119V149.099Z" fill="#FF0867"/>
<path d="M119.666 96.7454H115.682V105.11H119.666V96.7454Z" fill="#FF717F"/>
<path d="M120.184 105.605H115.156V96.2499H120.184V105.605ZM116.2 104.614H119.149V97.2406H116.2V104.614Z" fill="white"/>
<path d="M119.666 109.951H115.682V118.315H119.666V109.951Z" fill="#FF717F"/>
<path d="M120.184 118.801H115.156V109.446H120.184V118.801ZM116.2 117.819H119.149V110.446H116.2V117.819Z" fill="white"/>
<path d="M119.666 123.146H115.682V131.511H119.666V123.146Z" fill="#FF717F"/>
<path d="M120.184 132.006H115.156V122.651H120.184V132.006ZM116.2 131.015H119.149V123.642H116.2V131.015Z" fill="white"/>
<path d="M119.58 136.277H115.596V144.641H119.58V136.277Z" fill="#FF717F"/>
<path d="M120.097 145.137H115.069V135.782H120.097V145.137ZM116.113 144.146H119.063V136.772H116.113V144.146Z" fill="white"/>
<path d="M119.58 149.482H115.596V157.847H119.58V149.482Z" fill="#FF717F"/>
<path d="M120.097 158.342H115.069V148.987H120.097V158.342ZM116.113 157.351H119.063V149.978H116.113V157.351Z" fill="white"/>
<path d="M90.3412 96.5771H86.3572V104.941H90.3412V96.5771Z" fill="#FF717F"/>
<path d="M90.8593 105.438H85.8313V96.0829H90.8593V105.438ZM86.8752 104.447H89.8249V97.0736H86.8752V104.447Z" fill="white"/>
<path d="M90.341 109.773H86.3569V118.137H90.341V109.773Z" fill="#FF717F"/>
<path d="M90.8583 118.633H85.8303V109.278H90.8583V118.633ZM86.8742 117.642H89.824V110.268H86.8742V117.642Z" fill="white"/>
<path d="M90.341 122.978H86.3569V131.343H90.341V122.978Z" fill="#FF717F"/>
<path d="M90.8583 131.838H85.8303V122.483H90.8583V131.838ZM86.8742 130.847H89.824V123.474H86.8742V130.847Z" fill="white"/>
<path d="M90.2553 136.109H86.2712V144.473H90.2553V136.109Z" fill="#FF717F"/>
<path d="M90.7723 144.968H85.7444V135.613H90.7723V144.968ZM86.7883 143.978H89.7284V136.604H86.7787V143.978H86.7883Z" fill="white"/>
<path d="M90.2553 149.314H86.2712V157.678H90.2553V149.314Z" fill="#FF717F"/>
<path d="M90.7723 158.164H85.7444V148.809H90.7723V158.164ZM86.7883 157.183H89.7284V149.809H86.7787V157.183H86.7883Z" fill="white"/>
<path d="M134.367 96.6987H130.383V105.063H134.367V96.6987Z" fill="#FF717F"/>
<path d="M134.894 105.549H129.866V96.194H134.894V105.549ZM130.9 104.568H133.85V97.1939H130.9V104.568Z" fill="white"/>
<path d="M134.367 109.895H130.383V118.259H134.367V109.895Z" fill="#FF717F"/>
<path d="M134.894 118.754H129.866V109.399H134.894V118.754ZM130.9 117.764H133.85V110.39H130.9V117.764Z" fill="white"/>
<path d="M134.367 123.091H130.383V131.455H134.367V123.091Z" fill="#FF717F"/>
<path d="M134.894 131.95H129.866V122.595H134.894V131.95ZM130.9 130.96H133.85V123.586H130.9V130.96Z" fill="white"/>
<path d="M134.281 136.23H130.297V144.595H134.281V136.23Z" fill="#FF717F"/>
<path d="M134.808 145.09H129.78V135.735H134.808V145.09ZM130.814 144.099H133.764V136.726H130.814V144.099Z" fill="white"/>
<path d="M134.281 149.426H130.297V157.79H134.281V149.426Z" fill="#FF717F"/>
<path d="M134.808 158.286H129.78V148.931H134.808V158.286ZM130.814 157.295H133.764V149.922H130.814V157.295Z" fill="white"/>
<path d="M105.042 96.5212H101.058V104.885H105.042V96.5212Z" fill="#FF717F"/>
<path d="M105.569 105.381H100.541V96.0258H105.569V105.381ZM101.576 104.39H104.525V97.0164H101.576V104.39Z" fill="white"/>
<path d="M105.042 109.726H101.058V118.091H105.042V109.726Z" fill="#FF717F"/>
<path d="M105.568 118.586H100.54V109.231H105.568V118.586ZM101.574 117.595H104.524V110.222H101.574V117.595Z" fill="white"/>
<path d="M105.042 122.922H101.058V131.287H105.042V122.922Z" fill="#FF717F"/>
<path d="M105.568 131.782H100.54V122.427H105.568V131.782ZM101.574 130.791H104.524V123.418H101.574V130.791Z" fill="white"/>
<path d="M104.956 136.062H100.972V144.426H104.956V136.062Z" fill="#FF717F"/>
<path d="M105.482 144.912H100.454V135.557H105.482V144.912ZM101.489 143.931H104.438V136.557H101.489V143.931Z" fill="white"/>
<path d="M104.956 149.258H100.972V157.622H104.956V149.258Z" fill="#FF717F"/>
<path d="M105.482 158.118H100.454V148.763H105.482V158.118ZM101.489 157.127H104.438V149.753H101.489V157.127Z" fill="white"/>
<path d="M96.116 89.0726H123.229L109.677 77.8766L96.116 89.0726Z" fill="white"/>
<path d="M111.047 84.7643C111.047 85.4839 110.434 86.0633 109.667 86.0633C108.911 86.0633 108.288 85.4839 108.288 84.7643C108.288 84.0447 108.901 83.4653 109.667 83.4653C110.434 83.4746 111.047 84.054 111.047 84.7643Z" fill="#FF717F"/>
<path d="M76.579 86.6615L64.5886 69.7647L52.3586 87.3437H76.828L76.579 86.6615Z" fill="#FF0867"/>
<path d="M98.1655 87.353L91.4424 77.8766H109.677L98.1655 87.353Z" fill="#FF0867"/>
<path d="M163.261 108.455H145.831V184.285H163.261V108.455Z" fill="#464C59"/>
<path d="M163.27 184.285L210.313 184.323L210.093 108.596L186.677 100.97L163.27 108.596V184.285Z" fill="white"/>
<path d="M163.271 107.437L145.831 107.455L169.247 100.829L186.677 99.6799L163.271 107.437Z" fill="#FF1670"/>
<path d="M210.093 108.596L210.313 107.437L186.677 99.6799L163.27 107.437V108.596L186.677 100.97L210.093 108.596Z" fill="#FF1670"/>
<path d="M163.261 107.437H145.831V108.455H163.261V107.437Z" fill="#FF0867"/>
<path d="M155.933 115.642H153.223V123.941H155.933V115.642Z" fill="#FF0867"/>
<path d="M155.933 128.735H153.223V137.034H155.933V128.735Z" fill="#FF0867"/>
<path d="M155.933 141.838H153.223V150.137H155.933V141.838Z" fill="#FF0867"/>
<path d="M155.877 154.865H153.167V163.164H155.877V154.865Z" fill="#FF0867"/>
<path d="M155.877 167.958H153.167V176.257H155.877V167.958Z" fill="#FF0867"/>
<path d="M156.48 115.642H153.77V123.941H156.48V115.642Z" fill="#FF1670"/>
<path d="M156.478 128.735H153.768V137.034H156.478V128.735Z" fill="#FF1670"/>
<path d="M156.478 141.838H153.768V150.137H156.478V141.838Z" fill="#FF1670"/>
<path d="M156.423 154.865H153.712V163.164H156.423V154.865Z" fill="#FF1670"/>
<path d="M156.423 167.958H153.712V176.257H156.423V167.958Z" fill="#FF1670"/>
<path d="M197.748 115.605H195.124V123.969H197.748V115.605Z" fill="#FF1670"/>
<path d="M197.748 128.801H195.124V137.165H197.748V128.801Z" fill="#FF1670"/>
<path d="M197.748 142.006H195.124V150.37H197.748V142.006Z" fill="#FF1670"/>
<path d="M197.69 155.136H195.066V163.501H197.69V155.136Z" fill="#FF1670"/>
<path d="M197.69 168.332H195.066V176.697H197.69V168.332Z" fill="#FF1670"/>
<path d="M178.45 115.436H175.826V123.801H178.45V115.436Z" fill="#FF1670"/>
<path d="M178.448 128.632H175.824V136.997H178.448V128.632Z" fill="#FF1670"/>
<path d="M178.448 141.828H175.824V150.192H178.448V141.828Z" fill="#FF1670"/>
<path d="M178.393 154.968H175.769V163.332H178.393V154.968Z" fill="#FF1670"/>
<path d="M178.393 168.164H175.769V176.528H178.393V168.164Z" fill="#FF1670"/>
<path d="M197.259 115.605H194.635V123.969H197.259V115.605Z" fill="#FF717F"/>
<path d="M197.259 128.801H194.635V137.165H197.259V128.801Z" fill="#FF717F"/>
<path d="M197.259 142.006H194.635V150.37H197.259V142.006Z" fill="#FF717F"/>
<path d="M197.202 155.136H194.578V163.501H197.202V155.136Z" fill="#FF717F"/>
<path d="M197.202 168.332H194.578V176.697H197.202V168.332Z" fill="#FF717F"/>
<path d="M177.962 115.436H175.337V123.801H177.962V115.436Z" fill="#FF717F"/>
<path d="M177.96 128.632H175.336V136.997H177.96V128.632Z" fill="#FF717F"/>
<path d="M177.96 141.828H175.336V150.192H177.96V141.828Z" fill="#FF717F"/>
<path d="M177.904 154.968H175.28V163.332H177.904V154.968Z" fill="#FF717F"/>
<path d="M177.904 168.164H175.28V176.528H177.904V168.164Z" fill="#FF717F"/>
<path d="M127.759 141.576H77.2397V184.687H127.759V141.576Z" fill="#FF717F"/>
<path d="M144.49 131.044L95.5128 130.997L77.2397 141.576H144.49V131.044Z" fill="#FF1670"/>
<path d="M90.7816 149.38H86.8167V160.492H90.7816V149.38Z" fill="#FF0867"/>
<path d="M103.873 149.38H99.9084V160.492H103.873V149.38Z" fill="#FF0867"/>
<path d="M116.965 149.38H113V160.492H116.965V149.38Z" fill="#FF0867"/>
<path d="M88.7989 166.734C86.5579 166.734 84.7478 167.819 84.7478 169.146V179.8H92.85V169.146C92.85 167.819 91.0399 166.734 88.7989 166.734Z" fill="#FF0867"/>
<path d="M101.891 166.734C99.6499 166.734 97.8398 167.819 97.8398 169.146V179.8H105.942V169.146C105.942 167.819 104.132 166.734 101.891 166.734Z" fill="#FF0867"/>
<path d="M114.983 166.734C112.742 166.734 110.932 167.819 110.932 169.146V179.8H119.034V169.146C119.034 167.819 117.224 166.734 114.983 166.734Z" fill="#FF0867"/>
<path d="M91.3848 149.38H87.4199V160.492H91.3848V149.38Z" fill="#464C59"/>
<path d="M104.477 149.38H100.512V160.492H104.477V149.38Z" fill="#464C59"/>
<path d="M117.569 149.38H113.604V160.492H117.569V149.38Z" fill="#464C59"/>
<path d="M89.4024 166.734C87.1614 166.734 85.3513 167.819 85.3513 169.146V179.8H93.4535V169.146C93.4535 167.819 91.6435 166.734 89.4024 166.734Z" fill="#464C59"/>
<path d="M102.495 166.734C100.254 166.734 98.4436 167.819 98.4436 169.146V179.8H106.546V169.146C106.555 167.819 104.736 166.734 102.495 166.734Z" fill="#464C59"/>
<path d="M115.596 166.734C113.355 166.734 111.545 167.819 111.545 169.146V179.8H119.647V169.146C119.647 167.819 117.828 166.734 115.596 166.734Z" fill="#464C59"/>
<path d="M161.221 184.687H127.759V141.576L144.49 131.436L161.221 141.576V184.687Z" fill="#FFDEDE"/>
<path d="M161.221 141.576H127.759L144.49 131.044L161.221 141.576Z" fill="white"/>
<path d="M145.103 138.567C146.303 138.567 147.277 137.851 147.277 136.969C147.277 136.086 146.303 135.371 145.103 135.371C143.902 135.371 142.929 136.086 142.929 136.969C142.929 137.851 143.902 138.567 145.103 138.567Z" fill="#FF1670"/>
<path d="M139.634 149.38H135.669V160.491H139.634V149.38Z" fill="#FF1670"/>
<path d="M154.708 149.38H150.743V160.491H154.708V149.38Z" fill="#FF1670"/>
<path d="M145.102 167.996C142.028 167.996 139.528 169.379 139.528 171.08V184.687H150.676V171.08C150.676 169.379 148.186 167.996 145.102 167.996Z" fill="#FF1670"/>
<path d="M144.49 138.567C145.687 138.567 146.664 137.847 146.664 136.969C146.664 136.081 145.687 135.371 144.49 135.371C143.293 135.371 142.316 136.09 142.316 136.969C142.316 137.847 143.293 138.567 144.49 138.567Z" fill="#FF717F"/>
<path d="M139.021 149.38H135.056V160.491H139.021V149.38Z" fill="#FF717F"/>
<path d="M154.096 149.38H150.131V160.491H154.096V149.38Z" fill="#FF717F"/>
<path d="M144.49 167.996C141.416 167.996 138.916 169.379 138.916 171.08V184.687H150.064V171.08C150.064 169.379 147.564 167.996 144.49 167.996Z" fill="#FF717F"/>
<path d="M151.471 171.248H138.073V171.65H151.471V171.248Z" fill="#FFDEDE"/>
<path d="M145.103 167.538H144.49V184.687H145.103V167.538Z" fill="#FFDEDE"/>
<path d="M151.491 175.155H138.093V175.556H151.491V175.155Z" fill="#FFDEDE"/>
<path d="M120.509 169.959H110.673V170.36H120.509V169.959Z" fill="#FF717F"/>
<path d="M107.417 169.959H97.5815V170.36H107.417V169.959Z" fill="#FF717F"/>
<path d="M93.7216 169.959H83.886V170.36H93.7216V169.959Z" fill="#FF717F"/>
<path d="M256.331 125.399H210.103V184.285H256.331V125.399Z" fill="#FF1670"/>
<path d="M322.173 125.399H256.33V184.565H322.173V125.399Z" fill="#FFDEDE"/>
<path d="M317.472 132.286H263.496V134.632H317.472V132.286Z" fill="#FF1670"/>
<path d="M317.471 140.006H263.495V142.352H317.471V140.006Z" fill="#FF1670"/>
<path d="M317.471 147.725H263.495V150.071H317.471V147.725Z" fill="#FF1670"/>
<path d="M317.471 155.445H263.495V157.79H317.471V155.445Z" fill="#FF1670"/>
<path d="M317.471 163.164H263.495V165.51H317.471V163.164Z" fill="#FF1670"/>
<path d="M317.471 170.884H263.495V173.229H317.471V170.884Z" fill="#FF1670"/>
<path d="M317.471 178.603H263.495V180.949H317.471V178.603Z" fill="#FF1670"/>
<path d="M251.341 132.389H215.083V134.735H251.341V132.389Z" fill="#FF0867"/>
<path d="M251.341 140.109H215.082V142.454H251.341V140.109Z" fill="#FF0867"/>
<path d="M251.341 147.828H215.082V150.174H251.341V147.828Z" fill="#FF0867"/>
<path d="M251.341 155.548H215.082V157.893H251.341V155.548Z" fill="#FF0867"/>
<path d="M251.341 163.267H215.082V165.613H251.341V163.267Z" fill="#FF0867"/>
<path d="M251.341 170.986H215.082V173.332H251.341V170.986Z" fill="#FF0867"/>
<path d="M317.472 131.754H263.496V134.099H317.472V131.754Z" fill="#FF717F"/>
<path d="M317.471 139.473H263.495V141.819H317.471V139.473Z" fill="#FF717F"/>
<path d="M317.471 147.193H263.495V149.538H317.471V147.193Z" fill="#FF717F"/>
<path d="M317.471 154.912H263.495V157.258H317.471V154.912Z" fill="#FF717F"/>
<path d="M317.471 162.631H263.495V164.977H317.471V162.631Z" fill="#FF717F"/>
<path d="M317.471 170.351H263.495V172.697H317.471V170.351Z" fill="#FF717F"/>
<path d="M251.341 131.857H215.083V134.202H251.341V131.857Z" fill="#FF717F"/>
<path d="M251.341 139.576H215.082V141.922H251.341V139.576Z" fill="#FF717F"/>
<path d="M251.341 147.296H215.082V149.641H251.341V147.296Z" fill="#FF717F"/>
<path d="M251.341 155.006H215.082V157.351H251.341V155.006Z" fill="#FF717F"/>
<path d="M251.341 162.725H215.082V165.071H251.341V162.725Z" fill="#FF717F"/>
<path d="M251.341 170.444H215.082V172.79H251.341V170.444Z" fill="#FF717F"/>
<path d="M17.4973 62.0266H-6.98169V141.314H17.4973V62.0266Z" fill="#FF1670"/>
<path d="M17.4981 125.679V83.3716L-6.98085 112.605L-7 125.679H17.4981Z" fill="#FF0867"/>
<path d="M52.3679 62.0265H17.4978V141.697H52.3679V62.0265Z" fill="white"/>
<path d="M2.92198 68.5309H1.17896V136.894H2.92198V68.5309Z" fill="#FF717F"/>
<path d="M8.63902 68.5309H6.896V136.894H8.63902V68.5309Z" fill="#FF717F"/>
<path d="M14.3666 68.5309H12.6235V136.894H14.3666V68.5309Z" fill="#FF717F"/>
<path d="M47.3883 60.0639H14.855L6.89648 53.1762H39.7266L47.3883 60.0639Z" fill="#FFDEDE"/>
<path d="M14.855 62.0265H-2.77637V60.0639L6.89647 53.1762L14.855 60.0639V62.0265Z" fill="#464C59"/>
<path d="M23.8956 68.5311H22.1047V136.894H23.8956V68.5311Z" fill="#FF717F"/>
<path d="M29.7758 68.5311H27.9849V136.894H29.7758V68.5311Z" fill="#FF717F"/>
<path d="M35.6464 68.5311H33.8555V136.894H35.6464V68.5311Z" fill="#FF717F"/>
<path d="M41.517 68.5311H39.7261V136.894H41.517V68.5311Z" fill="#FF717F"/>
<path d="M47.3886 68.2413H45.5977V136.604H47.3886V68.2413Z" fill="#FF717F"/>
<path d="M47.388 60.0639H14.8547V62.0265H47.388V60.0639Z" fill="#FF8A8A"/>
<path d="M47.388 60.0639H14.8547V60.5592H47.388V60.0639Z" fill="#464C59"/>
<path d="M14.855 60.0639H-2.77637V60.5592H14.855V60.0639Z" fill="#FF1670"/>
<path d="M23.7997 60.0639H23.9816L24.0774 59.9891L16.7318 53.1762H16.3774L23.7997 60.0639Z" fill="#464C59"/>
<path d="M32.4961 53.1762L39.9279 60.0639H40.2822L32.8504 53.1762H32.4961Z" fill="#464C59"/>
<path d="M31.8636 60.0639H32.218L24.7958 53.1762H24.4414L31.8636 60.0639Z" fill="#464C59"/>
<path d="M52.6173 125.679L52.3683 87.6146L19.9978 125.679H52.6173Z" fill="#FFC5C5"/>
<path d="M62.6516 121.305H-4.90503L8.22512 137.118H78.741L62.6516 121.305Z" fill="#FF1670"/>
<path d="M-4.93164 186.042H8.22724V137.118L-4.90291 121.305L-4.93164 186.042Z" fill="#464C59"/>
<path d="M8.22754 186.042H79.0882L78.7434 137.118H8.22754V186.042Z" fill="white"/>
<path d="M19.8253 142.492H15.8604V152.445H19.8253V142.492Z" fill="#FF1670"/>
<path d="M20.3523 152.865H15.3435V142.062H20.3523V152.865ZM16.3874 152.024H19.318V142.912H16.3874V152.024Z" fill="white"/>
<path d="M32.9273 142.492H28.9624V152.445H32.9273V142.492Z" fill="#FF1670"/>
<path d="M33.4441 152.865H28.4353V142.062H33.4441V152.865ZM29.4792 152.024H32.4098V142.912H29.4792V152.024Z" fill="white"/>
<path d="M46.0189 142.492H42.054V152.445H46.0189V142.492Z" fill="#FF1670"/>
<path d="M46.5359 152.865H41.5271V142.062H46.5359V152.865ZM42.571 152.024H45.5016V142.912H42.571V152.024Z" fill="white"/>
<path d="M59.1107 142.492H55.1458V152.445H59.1107V142.492Z" fill="#FF1670"/>
<path d="M59.6277 152.865H54.6189V142.062H59.6277V152.865ZM55.6628 152.024H58.5934V142.912H55.6628V152.024Z" fill="white"/>
<path d="M72.2025 142.492H68.2375V152.445H72.2025V142.492Z" fill="#FF1670"/>
<path d="M72.7195 152.865H67.7107V142.062H72.7195V152.865ZM68.7546 152.024H71.6852V142.912H68.7546V152.024Z" fill="white"/>
<path d="M19.8253 158.389H15.8604V168.342H19.8253V158.389Z" fill="#FF1670"/>
<path d="M20.3523 168.771H15.3435V157.968H20.3523V168.771ZM16.3874 167.921H19.318V158.809H16.3874V167.921Z" fill="white"/>
<path d="M32.9273 158.389H28.9624V168.342H32.9273V158.389Z" fill="#FF1670"/>
<path d="M33.4441 168.771H28.4353V157.968H33.4441V168.771ZM29.4792 167.921H32.4098V158.809H29.4792V167.921Z" fill="white"/>
<path d="M46.0189 158.389H42.054V168.342H46.0189V158.389Z" fill="#FF1670"/>
<path d="M46.5359 168.771H41.5271V157.968H46.5359V168.771ZM42.571 167.921H45.5016V158.809H42.571V167.921Z" fill="white"/>
<path d="M59.1107 158.389H55.1458V168.342H59.1107V158.389Z" fill="#FF1670"/>
<path d="M59.6277 168.771H54.6189V157.968H59.6277V168.771ZM55.6628 167.921H58.5934V158.809H55.6628V167.921Z" fill="white"/>
<path d="M72.2025 158.389H68.2375V168.342H72.2025V158.389Z" fill="#FF1670"/>
<path d="M72.7195 168.771H67.7107V157.968H72.7195V168.771ZM68.7546 167.921H71.6852V158.809H68.7546V167.921Z" fill="white"/>
<path d="M19.8253 172.809H15.8604V182.762H19.8253V172.809Z" fill="#FF1670"/>
<path d="M20.3523 183.192H15.3435V172.388H20.3523V183.192ZM16.3874 182.341H19.318V173.229H16.3874V182.341Z" fill="white"/>
<path d="M32.9273 172.809H28.9624V182.762H32.9273V172.809Z" fill="#FF1670"/>
<path d="M33.4441 183.192H28.4353V172.388H33.4441V183.192ZM29.4792 182.341H32.4098V173.229H29.4792V182.341Z" fill="white"/>
<path d="M46.0189 172.809H42.054V182.762H46.0189V172.809Z" fill="#FF1670"/>
<path d="M46.5359 183.192H41.5271V172.388H46.5359V183.192ZM42.571 182.341H45.5016V173.229H42.571V182.341Z" fill="white"/>
<path d="M59.1107 172.809H55.1458V182.762H59.1107V172.809Z" fill="#FF1670"/>
<path d="M59.6277 183.192H54.6189V172.388H59.6277V183.192ZM55.6628 182.341H58.5934V173.229H55.6628V182.341Z" fill="white"/>
<path d="M72.2025 172.809H68.2375V182.762H72.2025V172.809Z" fill="#FF1670"/>
<path d="M72.7195 183.192H67.7107V172.388H72.7195V183.192ZM68.7546 182.341H71.6852V173.229H68.7546V182.341Z" fill="white"/>
<path d="M62.6539 119.894H-4.9314V121.305H62.6539V119.894Z" fill="#FF0867"/>
<path d="M78.7434 137.118H8.22754V137.866H78.7434V137.118Z" fill="#FF717F"/>
<path d="M-4.90503 121.305L8.22512 137.118V137.866L-4.90503 122.24V121.305Z" fill="#FF0867"/>
<path d="M22.1243 134.183H29.6614L26.0892 125.202L22.1243 134.183Z" fill="#FFDEDE"/>
<path d="M14.4817 125.202L22.1625 134.183L26.0891 125.202H14.4817Z" fill="#FF0867"/>
<path d="M51.6025 133.772H59.1493L55.5674 124.791L51.6025 133.772Z" fill="#FFDEDE"/>
<path d="M43.9597 124.791L51.6405 133.772L55.5671 124.791H43.9597Z" fill="#FF0867"/>
<path d="M78.9732 141.838L79.0498 185.397H43.0784L78.9732 141.838Z" fill="#FFC5C5"/>
<path d="M210.103 132.165V184.285H165.435L210.103 132.165Z" fill="#FFC5C5"/>
<path d="M369.254 68.6992H336.922V73.7552H369.254V68.6992Z" fill="#FFDEDE"/>
<path d="M374.972 72.6992H332.421V184.79H374.972V72.6992Z" fill="white"/>
<path d="M332.421 72.6992H321.935V185.22H332.421V72.6992Z" fill="#FF1670"/>
<path d="M339.422 68.6992H329.069V72.6991H339.422V68.6992Z" fill="#464C59"/>
<path d="M357.685 65.5123H344.114V68.6992H357.685V65.5123Z" fill="#FFDEDE"/>
<path d="M350.905 50.9426H350.177V67.1104H350.905V50.9426Z" fill="#FFDEDE"/>
<path d="M339.422 71.9048H329.069V72.6991H339.422V71.9048Z" fill="#464C59"/>
<path d="M369.254 71.9048H339.431V72.6991H369.254V71.9048Z" fill="#FFC5C5"/>
<path d="M357.685 67.9235H344.114V68.6992H357.685V67.9235Z" fill="#FFC5C5"/>
<path d="M344.124 65.5123H341.308V68.6992H344.124V65.5123Z" fill="#464C59"/>
<path d="M332.421 184.425H321.935V185.173H332.421V184.425Z" fill="#FF0867"/>
<path d="M331.109 77.3533H323.428V78.97H331.109V77.3533Z" fill="#FF0867"/>
<path d="M331.109 82.2596H323.428V83.8764H331.109V82.2596Z" fill="#FF0867"/>
<path d="M331.109 87.166H323.428V88.7828H331.109V87.166Z" fill="#FF0867"/>
<path d="M331.109 92.0724H323.428V93.6892H331.109V92.0724Z" fill="#FF0867"/>
<path d="M331.109 96.9789H323.428V98.5957H331.109V96.9789Z" fill="#FF0867"/>
<path d="M331.109 101.885H323.428V103.502H331.109V101.885Z" fill="#FF0867"/>
<path d="M331.109 106.801H323.428V108.418H331.109V106.801Z" fill="#FF0867"/>
<path d="M331.109 111.708H323.428V113.324H331.109V111.708Z" fill="#FF0867"/>
<path d="M331.109 116.614H323.428V118.231H331.109V116.614Z" fill="#FF0867"/>
<path d="M331.109 121.52H323.428V123.137H331.109V121.52Z" fill="#FF0867"/>
<path d="M331.109 126.427H323.428V128.044H331.109V126.427Z" fill="#FF0867"/>
<path d="M331.109 131.324H323.428V132.941H331.109V131.324Z" fill="#FF0867"/>
<path d="M331.109 136.23H323.428V137.847H331.109V136.23Z" fill="#FF0867"/>
<path d="M331.109 141.137H323.428V142.753H331.109V141.137Z" fill="#FF0867"/>
<path d="M331.109 146.043H323.428V147.66H331.109V146.043Z" fill="#FF0867"/>
<path d="M331.109 150.95H323.428V152.566H331.109V150.95Z" fill="#FF0867"/>
<path d="M331.109 155.865H323.428V157.482H331.109V155.865Z" fill="#FF0867"/>
<path d="M331.109 160.772H323.428V162.389H331.109V160.772Z" fill="#FF0867"/>
<path d="M331.109 165.678H323.428V167.295H331.109V165.678Z" fill="#FF0867"/>
<path d="M331.109 170.585H323.428V172.201H331.109V170.585Z" fill="#FF0867"/>
<path d="M331.109 175.491H323.428V177.108H331.109V175.491Z" fill="#FF0867"/>
<path d="M331.109 180.397H323.428V182.014H331.109V180.397Z" fill="#FF0867"/>
<path d="M372.089 77.0728H335.887V78.6895H372.089V77.0728Z" fill="#FF717F"/>
<path d="M372.089 81.9792H335.887V83.596H372.089V81.9792Z" fill="#FF717F"/>
<path d="M372.089 86.8856H335.887V88.5024H372.089V86.8856Z" fill="#FF717F"/>
<path d="M372.089 91.8014H335.887V93.4182H372.089V91.8014Z" fill="#FF717F"/>
<path d="M372.089 96.7078H335.887V98.3246H372.089V96.7078Z" fill="#FF717F"/>
<path d="M372.089 101.614H335.887V103.231H372.089V101.614Z" fill="#FF717F"/>
<path d="M372.089 106.521H335.887V108.137H372.089V106.521Z" fill="#FF717F"/>
<path d="M372.089 111.427H335.887V113.044H372.089V111.427Z" fill="#FF717F"/>
<path d="M372.089 116.333H335.887V117.95H372.089V116.333Z" fill="#FF717F"/>
<path d="M372.089 121.24H335.887V122.857H372.089V121.24Z" fill="#FF717F"/>
<path d="M372.089 126.156H335.887V127.772H372.089V126.156Z" fill="#FF717F"/>
<path d="M372.089 131.043H335.887V132.66H372.089V131.043Z" fill="#FF717F"/>
<path d="M372.089 135.95H335.887V137.567H372.089V135.95Z" fill="#FF717F"/>
<path d="M372.089 140.866H335.887V142.482H372.089V140.866Z" fill="#FF717F"/>
<path d="M372.089 145.772H335.887V147.389H372.089V145.772Z" fill="#FF717F"/>
<path d="M372.089 150.678H335.887V152.295H372.089V150.678Z" fill="#FF717F"/>
<path d="M372.089 155.585H335.887V157.202H372.089V155.585Z" fill="#FF717F"/>
<path d="M372.089 160.491H335.887V162.108H372.089V160.491Z" fill="#FF717F"/>
<path d="M372.089 165.398H335.887V167.015H372.089V165.398Z" fill="#FF717F"/>
<path d="M372.089 170.304H335.887V171.921H372.089V170.304Z" fill="#FF717F"/>
<path d="M372.089 175.22H335.887V176.837H372.089V175.22Z" fill="#FF717F"/>
<path d="M372.089 180.126H335.887V181.743H372.089V180.126Z" fill="#FF717F"/>
<path d="M375 184.369H332.382V185.22H375V184.369Z" fill="#F7BFBF"/>
</svg>
