<svg width="91" height="33" viewBox="0 0 91 33" fill="none" xmlns="http://www.w3.org/2000/svg">
<path d="M249.77 25.0978C247.03 21.4478 237.97 24.1578 232.79 23.4378C224.33 22.2578 218.76 17.2878 211.25 14.6378C199.82 10.5978 179.29 13.0778 169.44 18.9378C164.24 10.2978 157.59 2.14779 144.41 0.237789C130.56 -1.77221 127.99 9.59779 117.28 10.4178C111.36 10.8678 105.84 6.46779 99.3 6.20779C94.1 6.00779 90.61 6.12779 86.05 8.08779C81.29 10.1378 77.99 16.9578 73.02 17.8878C66.37 19.1378 58.6 12.4178 52 11.5378C49.14 11.1578 42.07 10.8278 39.54 11.7578C34.93 13.4578 36.13 17.6778 32.75 19.4878C29.26 21.3578 22 19.6878 17 19.8478C10.5 20.0578 6.15 21.7478 0 22.9378C2.29 30.9178 28.05 30.2278 36.35 30.5478C49.65 31.0578 63.18 30.5578 76.52 30.5378C76.52 30.5378 140.92 31.8278 156.91 32.3178C177.09 32.9278 197.38 32.9078 217.67 32.9078C228.62 32.9078 248.36 32.7878 255.67 25.9278C253.7 25.7578 252.06 24.9478 249.77 25.0978Z" fill="#FF0867"/>
</svg>
