<svg width="94" height="30" viewBox="0 0 94 30" fill="none" xmlns="http://www.w3.org/2000/svg">
<path d="M87.06 22.765C84.26 19.455 75.01 21.915 69.72 21.255C61.08 20.185 55.39 15.685 47.72 13.275C36.05 9.61504 15.08 11.855 5.02 17.165C-0.289993 9.33504 -7.08 1.94504 -20.54 0.215038C-34.68 -1.60496 -37.3 8.70504 -48.24 9.44504C-54.29 9.85504 -59.92 5.86504 -66.6 5.63504C-71.91 5.45504 -75.47 5.55504 -80.13 7.33504C-84.99 9.19504 -88.36 15.375 -93.44 16.215C-100.23 17.345 -108.16 11.255 -114.91 10.455C-117.83 10.115 -125.05 9.81504 -127.63 10.655C-132.34 12.195 -131.11 16.015 -134.56 17.665C-138.12 19.365 -145.54 17.845 -150.64 17.995C-157.28 18.185 -161.72 19.725 -168 20.795C-165.66 28.025 -139.35 27.405 -130.88 27.695C-117.3 28.165 -103.48 27.695 -89.86 27.685C-89.86 27.685 -24.1 28.855 -7.77 29.295C12.84 29.855 33.56 29.835 54.28 29.835C65.47 29.835 85.62 29.725 93.08 23.505C91.07 23.365 89.39 22.635 87.06 22.765Z" fill="#FF0867"/>
</svg>
