<svg width="123" height="11" viewBox="0 0 123 11" fill="none" xmlns="http://www.w3.org/2000/svg">
<path d="M6.47407 10.8158H0V0.184193H1.33029V9.62224H6.47407V10.8158Z" fill="black"/>
<path d="M8.60254 10.8158V0.184193H9.93283V10.8158H8.60254Z" fill="black"/>
<path d="M15.7344 10.8158L11.8026 0.184193H13.1994L16.333 9.09913H16.4512L19.5848 0.184193H20.9816L17.0499 10.8158H15.7344Z" fill="black"/>
<path d="M29.4585 10.8158H22.8514V0.184193H29.4585V1.37776H24.1817V4.78902H29.1851V5.96785H24.1817V9.62224H29.4585V10.8158Z" fill="black"/>
<path d="M31.8678 10.8158V0.184193H33.1612L38.9479 8.45814H39.0662V0.184193H40.3817V10.8158H39.0883L33.3016 2.57133H33.1833V10.8158H31.8678Z" fill="black"/>
<path d="M51.1127 0.184193C52.2114 0.184193 53.1007 0.518196 53.7806 1.1862C54.4655 1.85421 54.8079 2.73342 54.8079 3.82384C54.8079 4.90936 54.4556 5.78857 53.7511 6.46149C53.0465 7.12949 52.1301 7.4635 51.0018 7.4635H48.8955V10.8158H46.6636V0.184193H51.1127ZM48.8955 5.72472H50.514C51.1545 5.72472 51.6522 5.56017 52.0069 5.23108C52.3617 4.90199 52.539 4.43537 52.539 3.83121C52.539 3.22706 52.3617 2.76044 52.0069 2.43135C51.6571 2.10717 51.1619 1.94508 50.5214 1.94508H48.8955V5.72472Z" fill="black"/>
<path d="M61.2894 8.23711H57.5424L56.7294 10.8158H54.4384L58.141 0.184193H60.7646L64.4747 10.8158H62.1023L61.2894 8.23711ZM58.0228 6.572H60.809L59.4417 2.21768H59.39L58.0228 6.572Z" fill="black"/>
<path d="M67.0983 7.78768C67.1476 8.21992 67.3791 8.57111 67.793 8.84126C68.202 9.1065 68.7045 9.23912 69.3007 9.23912C69.8919 9.23912 70.3748 9.11141 70.7492 8.856C71.1187 8.60549 71.3035 8.28377 71.3035 7.89082C71.3035 7.547 71.1655 7.26948 70.8896 7.05827C70.6137 6.84706 70.153 6.67024 69.5076 6.5278L68.1182 6.22572C66.1622 5.80822 65.1842 4.81849 65.1842 3.25653C65.1842 2.28399 65.566 1.49565 66.3297 0.891494C67.0884 0.297165 68.0665 0 69.2637 0C70.4955 0 71.4809 0.292253 72.2199 0.876758C72.9491 1.45635 73.3236 2.22996 73.3433 3.19759H71.2518C71.2173 2.75061 71.0177 2.39696 70.6531 2.13664C70.2935 1.88122 69.8328 1.75352 69.2711 1.75352C68.7193 1.75352 68.2759 1.87386 67.9408 2.11453C67.6009 2.35521 67.4309 2.67203 67.4309 3.06497C67.4309 3.38915 67.5688 3.65439 67.8447 3.86068C68.1157 4.05716 68.5592 4.22661 69.175 4.36906L70.4684 4.64166C71.5375 4.8676 72.316 5.22126 72.8038 5.70261C73.2915 6.17906 73.5354 6.82251 73.5354 7.63295C73.5354 8.66443 73.1462 9.48225 72.3677 10.0864C71.5893 10.6955 70.5373 11 69.212 11C67.926 11 66.9037 10.7151 66.1449 10.1453C65.3812 9.57066 64.9822 8.78477 64.9477 7.78768H67.0983Z" fill="black"/>
<path d="M76.6616 7.78768C76.7109 8.21992 76.9424 8.57111 77.3563 8.84126C77.7653 9.1065 78.2678 9.23912 78.864 9.23912C79.4552 9.23912 79.9381 9.11141 80.3125 8.856C80.682 8.60549 80.8668 8.28377 80.8668 7.89082C80.8668 7.547 80.7288 7.26948 80.4529 7.05827C80.177 6.84706 79.7163 6.67024 79.0709 6.5278L77.6815 6.22572C75.7255 5.80822 74.7475 4.81849 74.7475 3.25653C74.7475 2.28399 75.1293 1.49565 75.893 0.891494C76.6517 0.297165 77.6298 0 78.827 0C80.0588 0 81.0442 0.292253 81.7832 0.876758C82.5124 1.45635 82.8869 2.22996 82.9066 3.19759H80.8151C80.7806 2.75061 80.581 2.39696 80.2164 2.13664C79.8568 1.88122 79.3961 1.75352 78.8344 1.75352C78.2826 1.75352 77.8391 1.87386 77.5041 2.11453C77.1642 2.35521 76.9942 2.67203 76.9942 3.06497C76.9942 3.38915 77.1321 3.65439 77.408 3.86068C77.679 4.05716 78.1225 4.22661 78.7383 4.36906L80.0317 4.64166C81.1008 4.8676 81.8793 5.22126 82.3671 5.70261C82.8548 6.17906 83.0987 6.82251 83.0987 7.63295C83.0987 8.66443 82.7095 9.48225 81.931 10.0864C81.1526 10.6955 80.1006 11 78.7753 11C77.4893 11 76.467 10.7151 75.7082 10.1453C74.9445 9.57066 74.5455 8.78477 74.511 7.78768H76.6616Z" fill="black"/>
<path d="M88.9224 0.184193C90.0211 0.184193 90.9105 0.518196 91.5904 1.1862C92.2753 1.85421 92.6177 2.73342 92.6177 3.82384C92.6177 4.90936 92.2654 5.78857 91.5608 6.46149C90.8563 7.12949 89.9399 7.4635 88.8116 7.4635H86.7053V10.8158H84.4734V0.184193H88.9224ZM86.7053 5.72472H88.3238C88.9643 5.72472 89.4619 5.56017 89.8167 5.23108C90.1714 4.90199 90.3488 4.43537 90.3488 3.83121C90.3488 3.22706 90.1714 2.76044 89.8167 2.43135C89.4669 2.10717 88.9717 1.94508 88.3312 1.94508H86.7053V5.72472Z" fill="black"/>
<path d="M98.7444 0C100.326 0 101.577 0.493637 102.499 1.48091C103.425 2.46818 103.888 3.80911 103.888 5.50368C103.888 7.19335 103.425 8.53182 102.499 9.51909C101.572 10.5064 100.321 11 98.7444 11C97.1628 11 95.9114 10.5064 94.99 9.51909C94.0638 8.53182 93.6006 7.19335 93.6006 5.50368C93.6006 3.80911 94.0638 2.46818 94.99 1.48091C95.9114 0.493637 97.1628 0 98.7444 0ZM98.7444 1.85666C97.8723 1.85666 97.1776 2.18576 96.6603 2.84394C96.138 3.50212 95.8769 4.3887 95.8769 5.50368C95.8769 6.61375 96.1356 7.49788 96.6529 8.15606C97.1702 8.80933 97.8674 9.13597 98.7444 9.13597C99.6165 9.13597 100.311 8.80933 100.829 8.15606C101.346 7.49788 101.605 6.61375 101.605 5.50368C101.605 4.3887 101.346 3.50212 100.829 2.84394C100.311 2.18576 99.6165 1.85666 98.7444 1.85666Z" fill="black"/>
<path d="M107.561 5.31212H109.52C110.081 5.31212 110.52 5.16231 110.835 4.86269C111.146 4.56307 111.301 4.14802 111.301 3.61755C111.301 3.10181 111.138 2.68922 110.813 2.37977C110.488 2.07524 110.049 1.92297 109.498 1.92297H107.561V5.31212ZM107.561 10.8158H105.329V0.184193H109.734C110.951 0.184193 111.902 0.486269 112.587 1.09042C113.257 1.68966 113.592 2.5173 113.592 3.57334C113.592 4.26591 113.422 4.87988 113.082 5.41527C112.737 5.96539 112.262 6.35834 111.656 6.59411L113.902 10.8158H111.375L109.387 6.92565H107.561V10.8158Z" fill="black"/>
<path d="M117.642 10.8158V2.01875H114.523V0.184193H123V2.01875H119.874V10.8158H117.642Z" fill="black"/>
</svg>
