<svg width="64" height="90" viewBox="0 0 64 90" fill="none" xmlns="http://www.w3.org/2000/svg">
<g filter="url(#filter0_d)">
<path d="M29.0599 53.8655C29.1375 53.924 29.2658 53.9837 29.435 53.9353C31.7674 53.2689 34.233 53.269 36.5652 53.9353C36.8406 54.014 37.1103 53.808 37.1103 53.524V53.2223C37.1103 50.9559 35.2664 49.112 33 49.112C30.7335 49.112 28.8896 50.9559 28.8896 53.2223C28.8898 53.5151 28.8532 53.7096 29.0599 53.8655Z" fill="black"/>
<path d="M49.7342 10.035C49.7342 7.25556 47.1965 5.30103 44.6439 6.23688C44.6073 6.25024 45.2157 6.01104 13.4746 18.5162H49.7342V10.035Z" fill="#FFB4C7"/>
<path d="M10 21V72.2214C10 74.3049 11.6759 76 13.7358 76H50.2642C52.3241 76 54 74.3049 54 72.2214V21H10ZM25.3585 25.7583H38.6415C39.7877 25.7583 40.717 26.6982 40.717 27.8575C40.717 29.0168 39.7877 29.9567 38.6415 29.9567H25.3585C24.2123 29.9567 23.283 29.0168 23.283 27.8575C23.283 26.6982 24.2123 25.7583 25.3585 25.7583Z" fill="white"/>
<path d="M12 23V70.4962C12 72.4282 13.5235 74 15.3962 74H48.6038C50.4765 74 52 72.4282 52 70.4962V23H12ZM25.9623 27.4122H38.0377C39.0798 27.4122 39.9245 28.2838 39.9245 29.3588C39.9245 30.4338 39.0798 31.3053 38.0377 31.3053H25.9623C24.9203 31.3053 24.0755 30.4338 24.0755 29.3588C24.0755 28.2838 24.9203 27.4122 25.9623 27.4122Z" fill="#FF3C6E"/>
<path d="M14 25V68.771C14 70.5515 15.3712 72 17.0566 72H46.9434C48.6288 72 50 70.5515 50 68.771V25H14Z" fill="white"/>
<path d="M16 27V67.0458C16 68.6748 17.2188 70 18.717 70H45.283C46.7812 70 48 68.6748 48 67.0458V27H16Z" fill="#FF3C6E"/>
<path d="M26.6532 46.5758C25.1552 45.9804 23.3753 46.701 22.7665 48.1465C22.4788 48.843 22.4879 49.6255 22.7918 50.3153C23.1064 51.0601 23.7077 51.6496 24.4623 51.9528C24.9587 52.1385 25.486 52.2291 26.0164 52.2199C27.6771 52.2199 29.3112 51.5006 29.3981 51.4631C29.6085 51.3727 29.8358 51.2488 29.9255 51.004C29.9904 50.775 29.9563 50.5296 29.8316 50.3265C29.7839 50.2068 28.6674 47.3744 26.6532 46.5758Z" fill="white"/>
<path d="M34.7578 50.3265C34.634 50.5297 34.5996 50.7747 34.6629 51.004C34.7523 51.2488 34.9799 51.3726 35.1894 51.4631C35.2746 51.5006 36.9016 52.2199 38.5566 52.2199C39.0843 52.2293 39.6089 52.1386 40.1026 51.9528C40.8543 51.6496 41.4535 51.0602 41.7674 50.3153C42.0685 49.6252 42.0776 48.8433 41.7925 48.1465C41.1864 46.701 39.4183 45.9804 37.9211 46.5758C35.917 47.3743 34.8039 50.2068 34.7578 50.3265Z" fill="white"/>
<path d="M35.2161 45.0074C35.2161 43.4042 33.8914 42.0266 32.3116 42.0002C31.5534 41.9921 30.8241 42.2896 30.2903 42.8248C29.7087 43.3906 29.3786 44.1638 29.3735 44.9726C29.3814 45.4991 29.4908 46.0192 29.6959 46.5048C30.3085 48.0369 31.5841 49.2822 31.6584 49.3477C31.8196 49.5078 32.0201 49.6722 32.2808 49.6652C32.5193 49.6396 32.7367 49.5177 32.8822 49.3282C32.9705 49.2446 35.2105 47.1664 35.2161 45.0074Z" fill="white"/>
</g>
<defs>
<filter id="filter0_d" x="0" y="0" width="64" height="90" filterUnits="userSpaceOnUse" color-interpolation-filters="sRGB">
<feFlood flood-opacity="0" result="BackgroundImageFix"/>
<feColorMatrix in="SourceAlpha" type="matrix" values="0 0 0 0 0 0 0 0 0 0 0 0 0 0 0 0 0 0 127 0"/>
<feOffset dy="4"/>
<feGaussianBlur stdDeviation="5"/>
<feColorMatrix type="matrix" values="0 0 0 0 1 0 0 0 0 0.235294 0 0 0 0 0.431372 0 0 0 0.14 0"/>
<feBlend mode="normal" in2="BackgroundImageFix" result="effect1_dropShadow"/>
<feBlend mode="normal" in="SourceGraphic" in2="effect1_dropShadow" result="shape"/>
</filter>
</defs>
</svg>
